<svg width="34" height="34" viewBox="0 0 34 34" fill="none" xmlns="http://www.w3.org/2000/svg">
  <rect width="34" height="34" rx="6" fill="#ffffff20"/>
  <path d="M17 7V27M13.5 11H18.25C19.2165 11 20.1431 11.3817 20.8306 12.0694C21.5182 12.7571 21.9 13.6835 21.9 14.65C21.9 15.6165 21.5182 16.5429 20.8306 17.2306C20.1431 17.9183 19.2165 18.3 18.25 18.3H15.75C14.7835 18.3 13.8569 18.6817 13.1694 19.3694C12.4817 20.0571 12.1 20.9835 12.1 21.95C12.1 22.9165 12.4817 23.8429 13.1694 24.5306C13.8569 25.2183 14.7835 25.6 15.75 25.6H20.5" stroke="#ffffff" stroke-width="2" stroke-linecap="round" stroke-linejoin="round"/>
</svg>
